<svg width="17" height="17" viewBox="0 0 17 17" fill="none" xmlns="http://www.w3.org/2000/svg">
<path d="M9.91667 4.95834V4.95834C9.91667 4.84227 9.91667 4.78424 9.91426 4.7352C9.86378 3.70779 9.04221 2.88622 8.0148 2.83574C7.96576 2.83334 7.90773 2.83334 7.79166 2.83334H6.375C4.93082 2.83334 4.20873 2.83334 3.69513 3.1888C3.49727 3.32574 3.32574 3.49727 3.1888 3.69514C2.83333 4.20873 2.83333 4.93082 2.83333 6.375V7.79167C2.83333 7.90773 2.83333 7.96577 2.83574 8.0148C2.88621 9.04221 3.70779 9.86379 4.7352 9.91426C4.78423 9.91667 4.84227 9.91667 4.95833 9.91667V9.91667" stroke="white" stroke-width="2"/>
<rect x="7.08334" y="7.08334" width="7.08333" height="7.08333" rx="2" stroke="white" stroke-width="2"/>
</svg>
