<svg width="28" height="28" viewBox="0 0 28 28" fill="none" xmlns="http://www.w3.org/2000/svg">
<circle cx="14" cy="9.33332" r="3.66667" stroke="white" stroke-width="2" stroke-linecap="round"/>
<path d="M17.6683 9.25C17.9998 8.67579 18.5458 8.25679 19.1863 8.08519C19.8267 7.91358 20.5091 8.00342 21.0833 8.33494C21.6575 8.66646 22.0765 9.2125 22.2482 9.85295C22.4198 10.4934 22.3299 11.1758 21.9984 11.75C21.6669 12.3242 21.1208 12.7432 20.4804 12.9148C19.8399 13.0864 19.1575 12.9966 18.5833 12.6651C18.0091 12.3335 17.5901 11.7875 17.4185 11.147C17.2469 10.5066 17.3368 9.82421 17.6683 9.25L17.6683 9.25Z" stroke="white" stroke-width="2"/>
<path d="M6.0016 9.25C6.33313 8.67579 6.87917 8.25679 7.51962 8.08519C8.16007 7.91358 8.84246 8.00342 9.41667 8.33494C9.99088 8.66646 10.4099 9.2125 10.5815 9.85295C10.7531 10.4934 10.6633 11.1758 10.3317 11.75C10.0002 12.3242 9.45416 12.7432 8.81372 12.9148C8.17327 13.0864 7.49088 12.9966 6.91667 12.6651C6.34246 12.3335 5.92346 11.7875 5.75185 11.147C5.58025 10.5066 5.67008 9.82421 6.0016 9.25L6.0016 9.25Z" stroke="white" stroke-width="2"/>
<path d="M19.6952 21L18.7149 21.1974L18.8765 22H19.6952V21ZM24.2346 19.9006L25.1852 19.5903L25.1852 19.5903L24.2346 19.9006ZM17.2443 17.1623L16.6394 16.366L15.4829 17.2444L16.7162 18.0115L17.2443 17.1623ZM23.3672 20H19.6952V22H23.3672V20ZM23.2839 20.211C23.2783 20.1938 23.2733 20.1607 23.2812 20.1204C23.2887 20.0824 23.3047 20.0535 23.3199 20.0347C23.3492 19.9986 23.3737 20 23.3672 20V22C24.5239 22 25.6201 20.9225 25.1852 19.5903L23.2839 20.211ZM19.8333 17.3333C21.9439 17.3333 22.8678 18.9364 23.2839 20.211L25.1852 19.5903C24.7005 18.1056 23.3144 15.3333 19.8333 15.3333V17.3333ZM17.8491 17.9586C18.3262 17.5963 18.9587 17.3333 19.8333 17.3333V15.3333C18.5148 15.3333 17.4588 15.7436 16.6394 16.366L17.8491 17.9586ZM16.7162 18.0115C17.9859 18.8012 18.508 20.1701 18.7149 21.1974L20.6755 20.8026C20.4249 19.5581 19.7315 17.5316 17.7724 16.3131L16.7162 18.0115Z" fill="white"/>
<path d="M10.7557 17.1623L11.2838 18.0114L12.5171 17.2444L11.3606 16.3659L10.7557 17.1623ZM3.76545 19.9006L4.71607 20.211L4.71607 20.211L3.76545 19.9006ZM8.30475 21V22H9.12342L9.28506 21.1974L8.30475 21ZM8.16668 17.3333C9.04136 17.3333 9.67378 17.5963 10.1509 17.9586L11.3606 16.3659C10.5412 15.7436 9.48522 15.3333 8.16668 15.3333V17.3333ZM4.71607 20.211C5.1322 18.9364 6.05617 17.3333 8.16668 17.3333V15.3333C4.68567 15.3333 3.29957 18.1056 2.81483 19.5903L4.71607 20.211ZM4.63278 20C4.62633 20 4.65082 19.9986 4.68015 20.0347C4.69535 20.0535 4.7113 20.0824 4.71879 20.1204C4.72671 20.1607 4.72168 20.1938 4.71607 20.211L2.81483 19.5903C2.37986 20.9225 3.47613 22 4.63278 22V20ZM8.30475 20H4.63278V22H8.30475V20ZM9.28506 21.1974C9.49196 20.1701 10.014 18.8012 11.2838 18.0114L10.2276 16.3131C8.26846 17.5316 7.57507 19.5581 7.32443 20.8026L9.28506 21.1974Z" fill="white"/>
<path d="M14 16.3333C18.305 16.3333 19.4329 19.5104 19.7284 21.1752C19.8249 21.719 19.3856 22.1667 18.8333 22.1667H9.16667C8.61438 22.1667 8.17505 21.719 8.27158 21.1752C8.56709 19.5104 9.695 16.3333 14 16.3333Z" stroke="white" stroke-width="2" stroke-linecap="round"/>
</svg>
