<svg width="29" height="29" viewBox="0 0 29 29" fill="none" xmlns="http://www.w3.org/2000/svg">
<path d="M6.04167 15.4178C6.04167 13.7772 6.04167 12.9569 6.37331 12.2359C6.70495 11.5148 7.32778 10.9809 8.57343 9.91324L9.78177 8.87752C12.0333 6.94766 13.159 5.98273 14.5 5.98273C15.841 5.98273 16.9667 6.94766 19.2182 8.87752L20.4266 9.91324C21.6722 10.9809 22.2951 11.5148 22.6267 12.2359C22.9583 12.9569 22.9583 13.7772 22.9583 15.4178V20.5417C22.9583 22.8201 22.9583 23.9593 22.2505 24.6672C21.5427 25.375 20.4035 25.375 18.125 25.375H10.875C8.59655 25.375 7.45732 25.375 6.7495 24.6672C6.04167 23.9593 6.04167 22.8201 6.04167 20.5417V15.4178Z" stroke="white" stroke-width="2"/>
<path d="M17.5208 25.375V19.125C17.5208 18.5727 17.0731 18.125 16.5208 18.125H12.4792C11.9269 18.125 11.4792 18.5727 11.4792 19.125V25.375" stroke="white" stroke-width="2" stroke-linecap="round" stroke-linejoin="round"/>
</svg>
