<svg width="400" height="400" viewBox="0 0 400 400" fill="none" xmlns="http://www.w3.org/2000/svg">
<g clip-path="url(#clip0_5_2)">
<rect width="400" height="400" rx="5" fill="#FB4670"/>
<g filter="url(#filter0_d_5_2)">
<rect x="222.5" y="197.5" width="155" height="217" rx="7.5" fill="#FB4670" stroke="white" stroke-width="5"/>
<rect x="237" y="211" width="126" height="180" rx="5" fill="white"/>
<path d="M335.97 273.477C339.181 271.477 343.458 271.872 346.248 274.661C349.497 277.911 349.497 283.18 346.248 286.429C344.976 287.701 343.396 288.474 341.751 288.751C341.474 290.396 340.701 291.976 339.429 293.248C336.18 296.497 330.911 296.497 327.661 293.248C324.872 290.459 324.477 286.182 326.476 282.972L324.45 280.946C321.816 283.367 317.717 283.302 315.163 280.749C315.162 280.748 315.162 280.748 315.161 280.748L314.72 280.306C312.932 278.52 310.647 277.314 308.163 276.847L308.163 276.847C300.103 275.328 293.792 273.014 290.161 269.384C281.264 260.486 281.264 246.059 290.161 237.161C299.059 228.263 313.486 228.263 322.384 237.161C326.014 240.792 328.328 247.103 329.845 255.161C330.314 257.648 331.521 259.935 333.31 261.724L333.31 261.724L333.748 262.161C336.302 264.716 336.368 268.817 333.945 271.451L335.97 273.477Z" stroke="#FB4670" stroke-width="7" stroke-linecap="round"/>
<mask id="path-5-outside-1_5_2" maskUnits="userSpaceOnUse" x="251" y="302" width="77" height="73" fill="black">
<rect fill="white" x="251" y="302" width="77" height="73"/>
<path d="M265.922 304.641C266.362 304.126 266.908 303.713 267.523 303.43C268.138 303.147 268.807 303 269.484 303H309.516C310.193 303 310.862 303.147 311.477 303.43C312.092 303.713 312.638 304.126 313.078 304.641L325.308 318.909C326.4 320.184 327 321.806 327 323.484V324.68C327 327 326.276 329.262 324.927 331.15C323.579 333.039 321.674 334.458 319.48 335.211C317.285 335.964 314.91 336.013 312.687 335.35C310.463 334.687 308.502 333.346 307.078 331.514C306.038 332.854 304.706 333.938 303.182 334.683C301.659 335.428 299.985 335.814 298.289 335.812C296.593 335.814 294.919 335.428 293.396 334.683C291.872 333.938 290.54 332.854 289.5 331.514C288.46 332.854 287.128 333.938 285.604 334.683C284.081 335.428 282.407 335.814 280.711 335.812C279.015 335.814 277.341 335.428 275.818 334.683C274.294 333.938 272.962 332.854 271.922 331.514C270.498 333.346 268.537 334.687 266.313 335.35C264.09 336.013 261.715 335.964 259.52 335.211C257.326 334.458 255.421 333.039 254.073 331.15C252.724 329.262 252 327 252 324.68V323.484C252 321.806 252.6 320.184 253.692 318.909L265.922 304.641ZM274.266 324.68C274.266 326.389 274.945 328.028 276.153 329.237C277.362 330.446 279.002 331.125 280.711 331.125C282.42 331.125 284.06 330.446 285.268 329.237C286.477 328.028 287.156 326.389 287.156 324.68C287.156 324.058 287.403 323.462 287.843 323.022C288.282 322.583 288.878 322.336 289.5 322.336C290.122 322.336 290.718 322.583 291.157 323.022C291.597 323.462 291.844 324.058 291.844 324.68C291.844 326.389 292.523 328.028 293.732 329.237C294.94 330.446 296.58 331.125 298.289 331.125C299.998 331.125 301.638 330.446 302.847 329.237C304.055 328.028 304.734 326.389 304.734 324.68C304.734 324.058 304.981 323.462 305.421 323.022C305.86 322.583 306.457 322.336 307.078 322.336C307.7 322.336 308.296 322.583 308.735 323.022C309.175 323.462 309.422 324.058 309.422 324.68C309.422 326.389 310.101 328.028 311.31 329.237C312.518 330.446 314.158 331.125 315.867 331.125C317.577 331.125 319.216 330.446 320.425 329.237C321.633 328.028 322.312 326.389 322.312 324.68V323.484C322.313 322.926 322.113 322.385 321.75 321.961L309.516 307.688H269.484L257.25 321.961C256.887 322.385 256.687 322.926 256.688 323.484V324.68C256.688 326.389 257.367 328.028 258.575 329.237C259.784 330.446 261.423 331.125 263.133 331.125C264.842 331.125 266.482 330.446 267.69 329.237C268.899 328.028 269.578 326.389 269.578 324.68C269.578 324.058 269.825 323.462 270.265 323.022C270.704 322.583 271.3 322.336 271.922 322.336C272.543 322.336 273.14 322.583 273.579 323.022C274.019 323.462 274.266 324.058 274.266 324.68ZM259.031 338.156C259.653 338.156 260.249 338.403 260.689 338.843C261.128 339.282 261.375 339.878 261.375 340.5V368.625H266.062V345.188C266.062 343.944 266.556 342.752 267.435 341.873C268.315 340.994 269.507 340.5 270.75 340.5H284.812C286.056 340.5 287.248 340.994 288.127 341.873C289.006 342.752 289.5 343.944 289.5 345.188V368.625H317.625V340.5C317.625 339.878 317.872 339.282 318.311 338.843C318.751 338.403 319.347 338.156 319.969 338.156C320.59 338.156 321.186 338.403 321.626 338.843C322.066 339.282 322.312 339.878 322.312 340.5V368.625H324.656C325.278 368.625 325.874 368.872 326.314 369.311C326.753 369.751 327 370.347 327 370.969C327 371.59 326.753 372.186 326.314 372.626C325.874 373.066 325.278 373.312 324.656 373.312H254.344C253.722 373.312 253.126 373.066 252.686 372.626C252.247 372.186 252 371.59 252 370.969C252 370.347 252.247 369.751 252.686 369.311C253.126 368.872 253.722 368.625 254.344 368.625H256.688V340.5C256.688 339.878 256.934 339.282 257.374 338.843C257.814 338.403 258.41 338.156 259.031 338.156ZM270.75 368.625H284.812V345.188H270.75V368.625ZM294.188 345.188C294.188 343.944 294.681 342.752 295.56 341.873C296.44 340.994 297.632 340.5 298.875 340.5H308.25C309.493 340.5 310.685 340.994 311.565 341.873C312.444 342.752 312.938 343.944 312.938 345.188V359.25C312.938 360.493 312.444 361.685 311.565 362.565C310.685 363.444 309.493 363.938 308.25 363.938H298.875C297.632 363.938 296.44 363.444 295.56 362.565C294.681 361.685 294.188 360.493 294.188 359.25V345.188ZM308.25 345.188H298.875V359.25H308.25V345.188Z"/>
</mask>
<path d="M265.922 304.641C266.362 304.126 266.908 303.713 267.523 303.43C268.138 303.147 268.807 303 269.484 303H309.516C310.193 303 310.862 303.147 311.477 303.43C312.092 303.713 312.638 304.126 313.078 304.641L325.308 318.909C326.4 320.184 327 321.806 327 323.484V324.68C327 327 326.276 329.262 324.927 331.15C323.579 333.039 321.674 334.458 319.48 335.211C317.285 335.964 314.91 336.013 312.687 335.35C310.463 334.687 308.502 333.346 307.078 331.514C306.038 332.854 304.706 333.938 303.182 334.683C301.659 335.428 299.985 335.814 298.289 335.812C296.593 335.814 294.919 335.428 293.396 334.683C291.872 333.938 290.54 332.854 289.5 331.514C288.46 332.854 287.128 333.938 285.604 334.683C284.081 335.428 282.407 335.814 280.711 335.812C279.015 335.814 277.341 335.428 275.818 334.683C274.294 333.938 272.962 332.854 271.922 331.514C270.498 333.346 268.537 334.687 266.313 335.35C264.09 336.013 261.715 335.964 259.52 335.211C257.326 334.458 255.421 333.039 254.073 331.15C252.724 329.262 252 327 252 324.68V323.484C252 321.806 252.6 320.184 253.692 318.909L265.922 304.641ZM274.266 324.68C274.266 326.389 274.945 328.028 276.153 329.237C277.362 330.446 279.002 331.125 280.711 331.125C282.42 331.125 284.06 330.446 285.268 329.237C286.477 328.028 287.156 326.389 287.156 324.68C287.156 324.058 287.403 323.462 287.843 323.022C288.282 322.583 288.878 322.336 289.5 322.336C290.122 322.336 290.718 322.583 291.157 323.022C291.597 323.462 291.844 324.058 291.844 324.68C291.844 326.389 292.523 328.028 293.732 329.237C294.94 330.446 296.58 331.125 298.289 331.125C299.998 331.125 301.638 330.446 302.847 329.237C304.055 328.028 304.734 326.389 304.734 324.68C304.734 324.058 304.981 323.462 305.421 323.022C305.86 322.583 306.457 322.336 307.078 322.336C307.7 322.336 308.296 322.583 308.735 323.022C309.175 323.462 309.422 324.058 309.422 324.68C309.422 326.389 310.101 328.028 311.31 329.237C312.518 330.446 314.158 331.125 315.867 331.125C317.577 331.125 319.216 330.446 320.425 329.237C321.633 328.028 322.312 326.389 322.312 324.68V323.484C322.313 322.926 322.113 322.385 321.75 321.961L309.516 307.688H269.484L257.25 321.961C256.887 322.385 256.687 322.926 256.688 323.484V324.68C256.688 326.389 257.367 328.028 258.575 329.237C259.784 330.446 261.423 331.125 263.133 331.125C264.842 331.125 266.482 330.446 267.69 329.237C268.899 328.028 269.578 326.389 269.578 324.68C269.578 324.058 269.825 323.462 270.265 323.022C270.704 322.583 271.3 322.336 271.922 322.336C272.543 322.336 273.14 322.583 273.579 323.022C274.019 323.462 274.266 324.058 274.266 324.68ZM259.031 338.156C259.653 338.156 260.249 338.403 260.689 338.843C261.128 339.282 261.375 339.878 261.375 340.5V368.625H266.062V345.188C266.062 343.944 266.556 342.752 267.435 341.873C268.315 340.994 269.507 340.5 270.75 340.5H284.812C286.056 340.5 287.248 340.994 288.127 341.873C289.006 342.752 289.5 343.944 289.5 345.188V368.625H317.625V340.5C317.625 339.878 317.872 339.282 318.311 338.843C318.751 338.403 319.347 338.156 319.969 338.156C320.59 338.156 321.186 338.403 321.626 338.843C322.066 339.282 322.312 339.878 322.312 340.5V368.625H324.656C325.278 368.625 325.874 368.872 326.314 369.311C326.753 369.751 327 370.347 327 370.969C327 371.59 326.753 372.186 326.314 372.626C325.874 373.066 325.278 373.312 324.656 373.312H254.344C253.722 373.312 253.126 373.066 252.686 372.626C252.247 372.186 252 371.59 252 370.969C252 370.347 252.247 369.751 252.686 369.311C253.126 368.872 253.722 368.625 254.344 368.625H256.688V340.5C256.688 339.878 256.934 339.282 257.374 338.843C257.814 338.403 258.41 338.156 259.031 338.156ZM270.75 368.625H284.812V345.188H270.75V368.625ZM294.188 345.188C294.188 343.944 294.681 342.752 295.56 341.873C296.44 340.994 297.632 340.5 298.875 340.5H308.25C309.493 340.5 310.685 340.994 311.565 341.873C312.444 342.752 312.938 343.944 312.938 345.188V359.25C312.938 360.493 312.444 361.685 311.565 362.565C310.685 363.444 309.493 363.938 308.25 363.938H298.875C297.632 363.938 296.44 363.444 295.56 362.565C294.681 361.685 294.188 360.493 294.188 359.25V345.188ZM308.25 345.188H298.875V359.25H308.25V345.188Z" fill="#FB4670"/>
<path d="M265.922 304.641C266.362 304.126 266.908 303.713 267.523 303.43C268.138 303.147 268.807 303 269.484 303H309.516C310.193 303 310.862 303.147 311.477 303.43C312.092 303.713 312.638 304.126 313.078 304.641L325.308 318.909C326.4 320.184 327 321.806 327 323.484V324.68C327 327 326.276 329.262 324.927 331.15C323.579 333.039 321.674 334.458 319.48 335.211C317.285 335.964 314.91 336.013 312.687 335.35C310.463 334.687 308.502 333.346 307.078 331.514C306.038 332.854 304.706 333.938 303.182 334.683C301.659 335.428 299.985 335.814 298.289 335.812C296.593 335.814 294.919 335.428 293.396 334.683C291.872 333.938 290.54 332.854 289.5 331.514C288.46 332.854 287.128 333.938 285.604 334.683C284.081 335.428 282.407 335.814 280.711 335.812C279.015 335.814 277.341 335.428 275.818 334.683C274.294 333.938 272.962 332.854 271.922 331.514C270.498 333.346 268.537 334.687 266.313 335.35C264.09 336.013 261.715 335.964 259.52 335.211C257.326 334.458 255.421 333.039 254.073 331.15C252.724 329.262 252 327 252 324.68V323.484C252 321.806 252.6 320.184 253.692 318.909L265.922 304.641ZM274.266 324.68C274.266 326.389 274.945 328.028 276.153 329.237C277.362 330.446 279.002 331.125 280.711 331.125C282.42 331.125 284.06 330.446 285.268 329.237C286.477 328.028 287.156 326.389 287.156 324.68C287.156 324.058 287.403 323.462 287.843 323.022C288.282 322.583 288.878 322.336 289.5 322.336C290.122 322.336 290.718 322.583 291.157 323.022C291.597 323.462 291.844 324.058 291.844 324.68C291.844 326.389 292.523 328.028 293.732 329.237C294.94 330.446 296.58 331.125 298.289 331.125C299.998 331.125 301.638 330.446 302.847 329.237C304.055 328.028 304.734 326.389 304.734 324.68C304.734 324.058 304.981 323.462 305.421 323.022C305.86 322.583 306.457 322.336 307.078 322.336C307.7 322.336 308.296 322.583 308.735 323.022C309.175 323.462 309.422 324.058 309.422 324.68C309.422 326.389 310.101 328.028 311.31 329.237C312.518 330.446 314.158 331.125 315.867 331.125C317.577 331.125 319.216 330.446 320.425 329.237C321.633 328.028 322.312 326.389 322.312 324.68V323.484C322.313 322.926 322.113 322.385 321.75 321.961L309.516 307.688H269.484L257.25 321.961C256.887 322.385 256.687 322.926 256.688 323.484V324.68C256.688 326.389 257.367 328.028 258.575 329.237C259.784 330.446 261.423 331.125 263.133 331.125C264.842 331.125 266.482 330.446 267.69 329.237C268.899 328.028 269.578 326.389 269.578 324.68C269.578 324.058 269.825 323.462 270.265 323.022C270.704 322.583 271.3 322.336 271.922 322.336C272.543 322.336 273.14 322.583 273.579 323.022C274.019 323.462 274.266 324.058 274.266 324.68ZM259.031 338.156C259.653 338.156 260.249 338.403 260.689 338.843C261.128 339.282 261.375 339.878 261.375 340.5V368.625H266.062V345.188C266.062 343.944 266.556 342.752 267.435 341.873C268.315 340.994 269.507 340.5 270.75 340.5H284.812C286.056 340.5 287.248 340.994 288.127 341.873C289.006 342.752 289.5 343.944 289.5 345.188V368.625H317.625V340.5C317.625 339.878 317.872 339.282 318.311 338.843C318.751 338.403 319.347 338.156 319.969 338.156C320.59 338.156 321.186 338.403 321.626 338.843C322.066 339.282 322.312 339.878 322.312 340.5V368.625H324.656C325.278 368.625 325.874 368.872 326.314 369.311C326.753 369.751 327 370.347 327 370.969C327 371.59 326.753 372.186 326.314 372.626C325.874 373.066 325.278 373.312 324.656 373.312H254.344C253.722 373.312 253.126 373.066 252.686 372.626C252.247 372.186 252 371.59 252 370.969C252 370.347 252.247 369.751 252.686 369.311C253.126 368.872 253.722 368.625 254.344 368.625H256.688V340.5C256.688 339.878 256.934 339.282 257.374 338.843C257.814 338.403 258.41 338.156 259.031 338.156ZM270.75 368.625H284.812V345.188H270.75V368.625ZM294.188 345.188C294.188 343.944 294.681 342.752 295.56 341.873C296.44 340.994 297.632 340.5 298.875 340.5H308.25C309.493 340.5 310.685 340.994 311.565 341.873C312.444 342.752 312.938 343.944 312.938 345.188V359.25C312.938 360.493 312.444 361.685 311.565 362.565C310.685 363.444 309.493 363.938 308.25 363.938H298.875C297.632 363.938 296.44 363.444 295.56 362.565C294.681 361.685 294.188 360.493 294.188 359.25V345.188ZM308.25 345.188H298.875V359.25H308.25V345.188Z" stroke="#FB4670" stroke-width="2" mask="url(#path-5-outside-1_5_2)"/>
</g>
<g filter="url(#filter1_d_5_2)">
<rect x="22.5" y="-14.5" width="155" height="217" rx="7.5" fill="#FB4670" stroke="white" stroke-width="5"/>
<path fill-rule="evenodd" clip-rule="evenodd" d="M148 162.444C156.321 153.959 177.127 168.807 148 187.9C118.873 168.809 139.679 153.959 148 162.444Z" fill="white"/>
<path d="M51.2688 174.5L42.171 183.595L42.171 183.595C41.9585 183.807 41.79 184.059 41.6751 184.337C41.5601 184.615 41.5009 184.912 41.5009 185.212C41.5009 185.513 41.5601 185.81 41.6751 186.088C41.79 186.365 41.9585 186.618 42.171 186.83C42.3834 187.042 42.6356 187.211 42.9131 187.326L43.1044 186.864L42.9131 187.326C43.1906 187.441 43.4881 187.5 43.7885 187.5C44.0889 187.5 44.3864 187.441 44.6639 187.326L44.4726 186.864L44.6639 187.326C44.9415 187.211 45.1937 187.042 45.4061 186.83L45.4061 186.83L54.5005 177.732L63.5948 186.83L63.5949 186.83C63.8073 187.042 64.0595 187.211 64.337 187.326C64.6145 187.441 64.912 187.5 65.2124 187.5C65.5128 187.5 65.8103 187.441 66.0878 187.326C66.3654 187.211 66.6176 187.042 66.83 186.83C67.0424 186.618 67.2109 186.365 67.3259 186.088C67.4408 185.81 67.5 185.513 67.5 185.212C67.5 184.912 67.4408 184.615 67.3259 184.337C67.2109 184.059 67.0424 183.807 66.83 183.595L66.8299 183.595L57.7322 174.5L66.8299 165.406L66.83 165.406C67.0424 165.194 67.2109 164.941 67.3259 164.664L66.8639 164.473L67.3259 164.664C67.4408 164.386 67.5 164.089 67.5 163.789C67.5 163.488 67.4408 163.191 67.3259 162.913L66.8639 163.104L67.3259 162.913C67.2109 162.636 67.0424 162.383 66.83 162.171C66.6176 161.959 66.3654 161.79 66.0878 161.675C65.8103 161.56 65.5128 161.501 65.2124 161.501C64.912 161.501 64.6145 161.56 64.337 161.675C64.0595 161.79 63.8073 161.959 63.5949 162.171L63.5948 162.171L54.5005 171.269L45.4065 162.171C45.4064 162.171 45.4063 162.171 45.4062 162.171C45.194 161.958 44.9419 161.79 44.6644 161.675C44.3868 161.559 44.0891 161.5 43.7885 161.5C43.4879 161.5 43.1903 161.559 42.9126 161.675C42.635 161.79 42.3828 161.959 42.1705 162.171L42.5245 162.525M51.2688 174.5L42.5245 165.053C42.3582 164.887 42.2263 164.69 42.1363 164.473C42.0463 164.256 42 164.023 42 163.789C42 163.554 42.0463 163.321 42.1363 163.104C42.2263 162.887 42.3582 162.69 42.5245 162.525M51.2688 174.5L42.1714 165.407C42.1713 165.406 42.1712 165.406 42.1711 165.406C41.9584 165.194 41.7897 164.942 41.6745 164.664C41.5593 164.387 41.5 164.089 41.5 163.789C41.5 163.488 41.5593 163.19 41.6745 162.913C41.7897 162.635 41.9586 162.383 42.1714 162.171L42.5245 162.525M51.2688 174.5L45.0525 162.525C44.8867 162.358 44.6897 162.226 44.4728 162.136C44.2559 162.046 44.0233 162 43.7885 162C43.5537 162 43.3212 162.046 43.1043 162.136C42.8874 162.226 42.6903 162.358 42.5245 162.525" fill="white" stroke="white"/>
<path d="M103.767 159.232L103.767 159.232C103.299 158.763 102.663 158.5 102 158.5C101.337 158.5 100.701 158.763 100.233 159.232L100.233 159.232L86.9397 172.523L86.9397 172.523C86.8003 172.662 86.6897 172.828 86.6143 173.01C86.5388 173.192 86.5 173.387 86.5 173.584C86.5 173.781 86.5388 173.977 86.6143 174.159C86.6897 174.341 86.8003 174.506 86.9397 174.646C87.2212 174.927 87.603 175.086 88.0012 175.086C88.1983 175.086 88.3935 175.047 88.5757 174.971C88.7578 174.896 88.9233 174.785 89.0627 174.646L89.0629 174.646L89.501 174.207V183.584C89.501 184.512 89.8697 185.402 90.5261 186.058C91.1824 186.715 92.0726 187.083 93.0008 187.083H110.999C111.927 187.083 112.818 186.715 113.474 186.058C114.13 185.402 114.499 184.512 114.499 183.584V174.207L114.937 174.646L114.937 174.646C115.219 174.927 115.601 175.086 115.999 175.086C116.397 175.086 116.779 174.927 117.06 174.646C117.342 174.364 117.5 173.982 117.5 173.584C117.5 173.186 117.342 172.804 117.06 172.523L117.06 172.523L112.499 167.964V161.585C112.499 161.188 112.341 160.806 112.06 160.525C111.779 160.243 111.397 160.085 110.999 160.085H108.999C108.602 160.085 108.22 160.243 107.939 160.525L108.292 160.878L107.939 160.525C107.658 160.806 107.499 161.188 107.499 161.585V162.964L103.767 159.232ZM102 161.707L111.499 171.206V183.584C111.499 183.716 111.446 183.843 111.353 183.937C111.259 184.031 111.132 184.083 110.999 184.083H93.0008C92.8682 184.083 92.741 184.031 92.6473 183.937C92.5535 183.843 92.5008 183.716 92.5008 183.584V171.206L102 161.707Z" fill="white" stroke="white"/>
<rect x="37" y="94" width="126" height="54" rx="5" fill="white"/>
<rect x="37" y="-12" width="126" height="95" rx="5" fill="white"/>
<mask id="path-12-outside-2_5_2" maskUnits="userSpaceOnUse" x="62" y="-10" width="77" height="73" fill="black">
<rect fill="white" x="62" y="-10" width="77" height="73"/>
<path d="M76.9219 -7.35937C77.362 -7.8739 77.9083 -8.28698 78.5233 -8.5702C79.1383 -8.85341 79.8073 -9.00004 80.4844 -9H120.516C121.193 -9.00004 121.862 -8.85341 122.477 -8.5702C123.092 -8.28698 123.638 -7.8739 124.078 -7.35937L136.308 6.90938C137.4 8.18359 138 9.80631 138 11.4844V12.6797C138 14.9999 137.276 17.2622 135.927 19.1504C134.579 21.0386 132.674 22.4584 130.48 23.2113C128.285 23.9642 125.91 24.0126 123.687 23.3497C121.463 22.6868 119.502 21.3458 118.078 19.5141C117.038 20.8539 115.706 21.9378 114.182 22.6829C112.659 23.428 110.985 23.8144 109.289 23.8125C107.593 23.8144 105.919 23.428 104.396 22.6829C102.872 21.9378 101.54 20.8539 100.5 19.5141C99.4603 20.8539 98.1276 21.9378 96.6041 22.6829C95.0807 23.428 93.4068 23.8144 91.7109 23.8125C90.015 23.8144 88.3412 23.428 86.8177 22.6829C85.2943 21.9378 83.9616 20.8539 82.9219 19.5141C81.4978 21.3458 79.5369 22.6868 77.3135 23.3497C75.09 24.0126 72.7149 23.9642 70.5203 23.2113C68.3256 22.4584 66.421 21.0386 65.0727 19.1504C63.7244 17.2622 62.9997 14.9999 63 12.6797V11.4844C63.0001 9.80631 63.6003 8.18359 64.6922 6.90938L76.9219 -7.35937ZM85.2656 12.6797C85.2656 14.3891 85.9447 16.0285 87.1534 17.2372C88.3621 18.4459 90.0015 19.125 91.7109 19.125C93.4203 19.125 95.0597 18.4459 96.2685 17.2372C97.4772 16.0285 98.1562 14.3891 98.1562 12.6797C98.1562 12.0581 98.4032 11.4619 98.8427 11.0224C99.2823 10.5829 99.8784 10.3359 100.5 10.3359C101.122 10.3359 101.718 10.5829 102.157 11.0224C102.597 11.4619 102.844 12.0581 102.844 12.6797C102.844 14.3891 103.523 16.0285 104.732 17.2372C105.94 18.4459 107.58 19.125 109.289 19.125C110.998 19.125 112.638 18.4459 113.847 17.2372C115.055 16.0285 115.734 14.3891 115.734 12.6797C115.734 12.0581 115.981 11.4619 116.421 11.0224C116.86 10.5829 117.457 10.3359 118.078 10.3359C118.7 10.3359 119.296 10.5829 119.735 11.0224C120.175 11.4619 120.422 12.0581 120.422 12.6797C120.422 14.3891 121.101 16.0285 122.31 17.2372C123.518 18.4459 125.158 19.125 126.867 19.125C128.577 19.125 130.216 18.4459 131.425 17.2372C132.633 16.0285 133.312 14.3891 133.312 12.6797V11.4844C133.313 10.9258 133.113 10.3855 132.75 9.96094L120.516 -4.3125H80.4844L68.25 9.96094C67.8869 10.3855 67.6875 10.9258 67.6875 11.4844V12.6797C67.6875 14.3891 68.3666 16.0285 69.5753 17.2372C70.784 18.4459 72.4234 19.125 74.1328 19.125C75.8422 19.125 77.4816 18.4459 78.6903 17.2372C79.8991 16.0285 80.5781 14.3891 80.5781 12.6797C80.5781 12.0581 80.8251 11.4619 81.2646 11.0224C81.7041 10.5829 82.3003 10.3359 82.9219 10.3359C83.5435 10.3359 84.1396 10.5829 84.5792 11.0224C85.0187 11.4619 85.2656 12.0581 85.2656 12.6797ZM70.0312 26.1562C70.6529 26.1562 71.249 26.4032 71.6885 26.8427C72.1281 27.2823 72.375 27.8784 72.375 28.5V56.625H128.625V28.5C128.625 27.8784 128.872 27.2823 129.311 26.8427C129.751 26.4032 130.347 26.1562 130.969 26.1562C131.59 26.1562 132.186 26.4032 132.626 26.8427C133.066 27.2823 133.312 27.8784 133.312 28.5V56.625H135.656C136.278 56.625 136.874 56.8719 137.314 57.3115C137.753 57.751 138 58.3471 138 58.9688C138 59.5904 137.753 60.1865 137.314 60.626C136.874 61.0656 136.278 61.3125 135.656 61.3125H65.3438C64.7221 61.3125 64.126 61.0656 63.6865 60.626C63.2469 60.1865 63 59.5904 63 58.9688C63 58.3471 63.2469 57.751 63.6865 57.3115C64.126 56.8719 64.7221 56.625 65.3438 56.625H67.6875V28.5C67.6875 27.8784 67.9344 27.2823 68.374 26.8427C68.8135 26.4032 69.4096 26.1562 70.0312 26.1562ZM79.4062 28.5C80.0279 28.5 80.624 28.7469 81.0635 29.1865C81.5031 29.626 81.75 30.2221 81.75 30.8438V47.25H119.25V30.8438C119.25 30.2221 119.497 29.626 119.936 29.1865C120.376 28.7469 120.972 28.5 121.594 28.5C122.215 28.5 122.811 28.7469 123.251 29.1865C123.691 29.626 123.938 30.2221 123.938 30.8438V47.25C123.938 48.4932 123.444 49.6855 122.565 50.5646C121.685 51.4436 120.493 51.9375 119.25 51.9375H81.75C80.5068 51.9375 79.3145 51.4436 78.4354 50.5646C77.5564 49.6855 77.0625 48.4932 77.0625 47.25V30.8438C77.0625 30.2221 77.3094 29.626 77.749 29.1865C78.1885 28.7469 78.7846 28.5 79.4062 28.5Z"/>
</mask>
<path d="M76.9219 -7.35937C77.362 -7.8739 77.9083 -8.28698 78.5233 -8.5702C79.1383 -8.85341 79.8073 -9.00004 80.4844 -9H120.516C121.193 -9.00004 121.862 -8.85341 122.477 -8.5702C123.092 -8.28698 123.638 -7.8739 124.078 -7.35937L136.308 6.90938C137.4 8.18359 138 9.80631 138 11.4844V12.6797C138 14.9999 137.276 17.2622 135.927 19.1504C134.579 21.0386 132.674 22.4584 130.48 23.2113C128.285 23.9642 125.91 24.0126 123.687 23.3497C121.463 22.6868 119.502 21.3458 118.078 19.5141C117.038 20.8539 115.706 21.9378 114.182 22.6829C112.659 23.428 110.985 23.8144 109.289 23.8125C107.593 23.8144 105.919 23.428 104.396 22.6829C102.872 21.9378 101.54 20.8539 100.5 19.5141C99.4603 20.8539 98.1276 21.9378 96.6041 22.6829C95.0807 23.428 93.4068 23.8144 91.7109 23.8125C90.015 23.8144 88.3412 23.428 86.8177 22.6829C85.2943 21.9378 83.9616 20.8539 82.9219 19.5141C81.4978 21.3458 79.5369 22.6868 77.3135 23.3497C75.09 24.0126 72.7149 23.9642 70.5203 23.2113C68.3256 22.4584 66.421 21.0386 65.0727 19.1504C63.7244 17.2622 62.9997 14.9999 63 12.6797V11.4844C63.0001 9.80631 63.6003 8.18359 64.6922 6.90938L76.9219 -7.35937ZM85.2656 12.6797C85.2656 14.3891 85.9447 16.0285 87.1534 17.2372C88.3621 18.4459 90.0015 19.125 91.7109 19.125C93.4203 19.125 95.0597 18.4459 96.2685 17.2372C97.4772 16.0285 98.1562 14.3891 98.1562 12.6797C98.1562 12.0581 98.4032 11.4619 98.8427 11.0224C99.2823 10.5829 99.8784 10.3359 100.5 10.3359C101.122 10.3359 101.718 10.5829 102.157 11.0224C102.597 11.4619 102.844 12.0581 102.844 12.6797C102.844 14.3891 103.523 16.0285 104.732 17.2372C105.94 18.4459 107.58 19.125 109.289 19.125C110.998 19.125 112.638 18.4459 113.847 17.2372C115.055 16.0285 115.734 14.3891 115.734 12.6797C115.734 12.0581 115.981 11.4619 116.421 11.0224C116.86 10.5829 117.457 10.3359 118.078 10.3359C118.7 10.3359 119.296 10.5829 119.735 11.0224C120.175 11.4619 120.422 12.0581 120.422 12.6797C120.422 14.3891 121.101 16.0285 122.31 17.2372C123.518 18.4459 125.158 19.125 126.867 19.125C128.577 19.125 130.216 18.4459 131.425 17.2372C132.633 16.0285 133.312 14.3891 133.312 12.6797V11.4844C133.313 10.9258 133.113 10.3855 132.75 9.96094L120.516 -4.3125H80.4844L68.25 9.96094C67.8869 10.3855 67.6875 10.9258 67.6875 11.4844V12.6797C67.6875 14.3891 68.3666 16.0285 69.5753 17.2372C70.784 18.4459 72.4234 19.125 74.1328 19.125C75.8422 19.125 77.4816 18.4459 78.6903 17.2372C79.8991 16.0285 80.5781 14.3891 80.5781 12.6797C80.5781 12.0581 80.8251 11.4619 81.2646 11.0224C81.7041 10.5829 82.3003 10.3359 82.9219 10.3359C83.5435 10.3359 84.1396 10.5829 84.5792 11.0224C85.0187 11.4619 85.2656 12.0581 85.2656 12.6797ZM70.0312 26.1562C70.6529 26.1562 71.249 26.4032 71.6885 26.8427C72.1281 27.2823 72.375 27.8784 72.375 28.5V56.625H128.625V28.5C128.625 27.8784 128.872 27.2823 129.311 26.8427C129.751 26.4032 130.347 26.1562 130.969 26.1562C131.59 26.1562 132.186 26.4032 132.626 26.8427C133.066 27.2823 133.312 27.8784 133.312 28.5V56.625H135.656C136.278 56.625 136.874 56.8719 137.314 57.3115C137.753 57.751 138 58.3471 138 58.9688C138 59.5904 137.753 60.1865 137.314 60.626C136.874 61.0656 136.278 61.3125 135.656 61.3125H65.3438C64.7221 61.3125 64.126 61.0656 63.6865 60.626C63.2469 60.1865 63 59.5904 63 58.9688C63 58.3471 63.2469 57.751 63.6865 57.3115C64.126 56.8719 64.7221 56.625 65.3438 56.625H67.6875V28.5C67.6875 27.8784 67.9344 27.2823 68.374 26.8427C68.8135 26.4032 69.4096 26.1562 70.0312 26.1562ZM79.4062 28.5C80.0279 28.5 80.624 28.7469 81.0635 29.1865C81.5031 29.626 81.75 30.2221 81.75 30.8438V47.25H119.25V30.8438C119.25 30.2221 119.497 29.626 119.936 29.1865C120.376 28.7469 120.972 28.5 121.594 28.5C122.215 28.5 122.811 28.7469 123.251 29.1865C123.691 29.626 123.938 30.2221 123.938 30.8438V47.25C123.938 48.4932 123.444 49.6855 122.565 50.5646C121.685 51.4436 120.493 51.9375 119.25 51.9375H81.75C80.5068 51.9375 79.3145 51.4436 78.4354 50.5646C77.5564 49.6855 77.0625 48.4932 77.0625 47.25V30.8438C77.0625 30.2221 77.3094 29.626 77.749 29.1865C78.1885 28.7469 78.7846 28.5 79.4062 28.5Z" fill="#FB4670"/>
<path d="M76.9219 -7.35937C77.362 -7.8739 77.9083 -8.28698 78.5233 -8.5702C79.1383 -8.85341 79.8073 -9.00004 80.4844 -9H120.516C121.193 -9.00004 121.862 -8.85341 122.477 -8.5702C123.092 -8.28698 123.638 -7.8739 124.078 -7.35937L136.308 6.90938C137.4 8.18359 138 9.80631 138 11.4844V12.6797C138 14.9999 137.276 17.2622 135.927 19.1504C134.579 21.0386 132.674 22.4584 130.48 23.2113C128.285 23.9642 125.91 24.0126 123.687 23.3497C121.463 22.6868 119.502 21.3458 118.078 19.5141C117.038 20.8539 115.706 21.9378 114.182 22.6829C112.659 23.428 110.985 23.8144 109.289 23.8125C107.593 23.8144 105.919 23.428 104.396 22.6829C102.872 21.9378 101.54 20.8539 100.5 19.5141C99.4603 20.8539 98.1276 21.9378 96.6041 22.6829C95.0807 23.428 93.4068 23.8144 91.7109 23.8125C90.015 23.8144 88.3412 23.428 86.8177 22.6829C85.2943 21.9378 83.9616 20.8539 82.9219 19.5141C81.4978 21.3458 79.5369 22.6868 77.3135 23.3497C75.09 24.0126 72.7149 23.9642 70.5203 23.2113C68.3256 22.4584 66.421 21.0386 65.0727 19.1504C63.7244 17.2622 62.9997 14.9999 63 12.6797V11.4844C63.0001 9.80631 63.6003 8.18359 64.6922 6.90938L76.9219 -7.35937ZM85.2656 12.6797C85.2656 14.3891 85.9447 16.0285 87.1534 17.2372C88.3621 18.4459 90.0015 19.125 91.7109 19.125C93.4203 19.125 95.0597 18.4459 96.2685 17.2372C97.4772 16.0285 98.1562 14.3891 98.1562 12.6797C98.1562 12.0581 98.4032 11.4619 98.8427 11.0224C99.2823 10.5829 99.8784 10.3359 100.5 10.3359C101.122 10.3359 101.718 10.5829 102.157 11.0224C102.597 11.4619 102.844 12.0581 102.844 12.6797C102.844 14.3891 103.523 16.0285 104.732 17.2372C105.94 18.4459 107.58 19.125 109.289 19.125C110.998 19.125 112.638 18.4459 113.847 17.2372C115.055 16.0285 115.734 14.3891 115.734 12.6797C115.734 12.0581 115.981 11.4619 116.421 11.0224C116.86 10.5829 117.457 10.3359 118.078 10.3359C118.7 10.3359 119.296 10.5829 119.735 11.0224C120.175 11.4619 120.422 12.0581 120.422 12.6797C120.422 14.3891 121.101 16.0285 122.31 17.2372C123.518 18.4459 125.158 19.125 126.867 19.125C128.577 19.125 130.216 18.4459 131.425 17.2372C132.633 16.0285 133.312 14.3891 133.312 12.6797V11.4844C133.313 10.9258 133.113 10.3855 132.75 9.96094L120.516 -4.3125H80.4844L68.25 9.96094C67.8869 10.3855 67.6875 10.9258 67.6875 11.4844V12.6797C67.6875 14.3891 68.3666 16.0285 69.5753 17.2372C70.784 18.4459 72.4234 19.125 74.1328 19.125C75.8422 19.125 77.4816 18.4459 78.6903 17.2372C79.8991 16.0285 80.5781 14.3891 80.5781 12.6797C80.5781 12.0581 80.8251 11.4619 81.2646 11.0224C81.7041 10.5829 82.3003 10.3359 82.9219 10.3359C83.5435 10.3359 84.1396 10.5829 84.5792 11.0224C85.0187 11.4619 85.2656 12.0581 85.2656 12.6797ZM70.0312 26.1562C70.6529 26.1562 71.249 26.4032 71.6885 26.8427C72.1281 27.2823 72.375 27.8784 72.375 28.5V56.625H128.625V28.5C128.625 27.8784 128.872 27.2823 129.311 26.8427C129.751 26.4032 130.347 26.1562 130.969 26.1562C131.59 26.1562 132.186 26.4032 132.626 26.8427C133.066 27.2823 133.312 27.8784 133.312 28.5V56.625H135.656C136.278 56.625 136.874 56.8719 137.314 57.3115C137.753 57.751 138 58.3471 138 58.9688C138 59.5904 137.753 60.1865 137.314 60.626C136.874 61.0656 136.278 61.3125 135.656 61.3125H65.3438C64.7221 61.3125 64.126 61.0656 63.6865 60.626C63.2469 60.1865 63 59.5904 63 58.9688C63 58.3471 63.2469 57.751 63.6865 57.3115C64.126 56.8719 64.7221 56.625 65.3438 56.625H67.6875V28.5C67.6875 27.8784 67.9344 27.2823 68.374 26.8427C68.8135 26.4032 69.4096 26.1562 70.0312 26.1562ZM79.4062 28.5C80.0279 28.5 80.624 28.7469 81.0635 29.1865C81.5031 29.626 81.75 30.2221 81.75 30.8438V47.25H119.25V30.8438C119.25 30.2221 119.497 29.626 119.936 29.1865C120.376 28.7469 120.972 28.5 121.594 28.5C122.215 28.5 122.811 28.7469 123.251 29.1865C123.691 29.626 123.938 30.2221 123.938 30.8438V47.25C123.938 48.4932 123.444 49.6855 122.565 50.5646C121.685 51.4436 120.493 51.9375 119.25 51.9375H81.75C80.5068 51.9375 79.3145 51.4436 78.4354 50.5646C77.5564 49.6855 77.0625 48.4932 77.0625 47.25V30.8438C77.0625 30.2221 77.3094 29.626 77.749 29.1865C78.1885 28.7469 78.7846 28.5 79.4062 28.5Z" stroke="#FB4670" stroke-width="2" mask="url(#path-12-outside-2_5_2)"/>
<rect x="46" y="102" width="87" height="16" rx="5" fill="#FB4670"/>
<rect x="46" y="102" width="87" height="16" rx="5" fill="#FB4670"/>
<rect x="46" y="102" width="87" height="16" rx="5" fill="#FB4670"/>
<rect x="46" y="102" width="87" height="16" rx="5" fill="#FB4670"/>
<rect x="46" y="102" width="87" height="16" rx="5" fill="#FB4670"/>
<rect x="46" y="102" width="87" height="16" rx="5" fill="#FB4670"/>
<rect x="46" y="124" width="45" height="16" rx="5" fill="#FB4670"/>
<rect x="46" y="124" width="45" height="16" rx="5" fill="#FB4670"/>
<rect x="46" y="124" width="45" height="16" rx="5" fill="#FB4670"/>
<rect x="46" y="124" width="45" height="16" rx="5" fill="#FB4670"/>
<rect x="46" y="124" width="45" height="16" rx="5" fill="#FB4670"/>
<rect x="46" y="124" width="45" height="16" rx="5" fill="#FB4670"/>
</g>
<g filter="url(#filter2_d_5_2)">
<path fill-rule="evenodd" clip-rule="evenodd" d="M302 57.1471C329.738 28.8628 399.09 78.3572 302 142C204.91 78.3634 274.262 28.8628 302 57.1471Z" fill="#FB4670"/>
<path d="M300.63 144.091L302 144.989L303.371 144.091C327.846 128.047 342.099 112.728 349.087 99.0525C356.107 85.3128 355.797 73.1841 351.032 63.9541C342.031 46.5166 317.391 40.3686 302 53.7171C286.609 40.3685 261.969 46.5184 252.968 63.9565C248.203 73.1868 247.893 85.3157 254.913 99.0551C261.901 112.73 276.154 128.049 300.63 144.091Z" stroke="white" stroke-width="5"/>
</g>
<g filter="url(#filter3_d_5_2)">
<path d="M56.8882 257.888C57.4852 257.29 58.1945 256.815 58.9753 256.491C59.7562 256.167 60.5933 256 61.4387 256C62.2841 256 63.1211 256.167 63.902 256.491C64.6828 256.815 65.3921 257.29 65.9891 257.888L100.002 291.914L134.014 257.888C134.612 257.291 135.321 256.817 136.102 256.493C136.883 256.17 137.72 256.003 138.565 256.003C139.41 256.003 140.247 256.17 141.027 256.493C141.808 256.817 142.518 257.291 143.115 257.888C143.713 258.486 144.187 259.195 144.51 259.976C144.834 260.757 145 261.594 145 262.439C145 263.284 144.834 264.121 144.51 264.901C144.187 265.682 143.713 266.392 143.115 266.989L109.09 301.002L143.115 335.014C143.713 335.612 144.187 336.321 144.51 337.102C144.834 337.883 145 338.72 145 339.565C145 340.41 144.834 341.247 144.51 342.027C144.187 342.808 143.713 343.518 143.115 344.115C142.518 344.713 141.808 345.187 141.027 345.51C140.247 345.834 139.41 346 138.565 346C137.72 346 136.883 345.834 136.102 345.51C135.321 345.187 134.612 344.713 134.014 344.115L100.002 310.09L65.9891 344.115C65.3915 344.713 64.6821 345.187 63.9013 345.51C63.1206 345.834 62.2838 346 61.4387 346C60.5936 346 59.7567 345.834 58.976 345.51C58.1952 345.187 57.4858 344.713 56.8882 344.115C56.2906 343.518 55.8166 342.808 55.4932 342.027C55.1698 341.247 55.0034 340.41 55.0034 339.565C55.0034 338.72 55.1698 337.883 55.4932 337.102C55.8166 336.321 56.2906 335.612 56.8882 335.014L90.9137 301.002L56.8882 266.989C56.2897 266.392 55.8148 265.683 55.4908 264.902C55.1668 264.121 55 263.284 55 262.439C55 261.593 55.1668 260.756 55.4908 259.975C55.8148 259.194 56.2897 258.485 56.8882 257.888Z" fill="#FB4670"/>
<path d="M55.1205 256.12C54.2902 256.949 53.6313 257.934 53.1817 259.017C52.7316 260.102 52.5 261.264 52.5 262.439C52.5 263.613 52.7316 264.776 53.1817 265.86C53.6316 266.944 54.2908 267.929 55.1217 268.758C55.122 268.758 55.1223 268.759 55.1227 268.759L87.3775 301.002L55.1208 333.246L55.1205 333.247C54.2907 334.076 53.6326 335.061 53.1835 336.145C52.7345 337.229 52.5034 338.391 52.5034 339.565C52.5034 340.738 52.7345 341.9 53.1835 342.984C53.6326 344.068 54.2907 345.053 55.1205 345.883C55.9502 346.713 56.9352 347.371 58.0193 347.82C59.1034 348.269 60.2653 348.5 61.4387 348.5C62.612 348.5 63.774 348.269 64.858 347.82C65.9421 347.371 66.9271 346.713 67.7569 345.883L67.7572 345.883L100.002 313.626L132.246 345.883L132.247 345.883C133.076 346.713 134.061 347.371 135.145 347.82C136.229 348.269 137.391 348.5 138.565 348.5C139.738 348.5 140.9 348.269 141.984 347.82C143.068 347.371 144.053 346.713 144.883 345.883C145.713 345.053 146.371 344.068 146.82 342.984C147.269 341.9 147.5 340.738 147.5 339.565C147.5 338.391 147.269 337.229 146.82 336.145C146.371 335.061 145.713 334.076 144.883 333.247L144.883 333.246L112.626 301.002L144.883 268.757L144.883 268.757C145.713 267.927 146.371 266.942 146.82 265.858C147.269 264.774 147.5 263.612 147.5 262.439C147.5 261.265 147.269 260.103 146.82 259.019C146.371 257.935 145.713 256.95 144.883 256.12C144.053 255.291 143.068 254.633 141.984 254.184C140.9 253.734 139.738 253.503 138.565 253.503C137.391 253.503 136.229 253.734 135.145 254.184C134.061 254.633 133.076 255.291 132.247 256.12L132.246 256.121L100.002 288.377L67.7591 256.123C67.7588 256.122 67.7584 256.122 67.7581 256.122C66.929 255.291 65.9443 254.632 64.8602 254.182C63.7756 253.732 62.6129 253.5 61.4387 253.5C60.2644 253.5 59.1017 253.732 58.0172 254.182C56.9336 254.631 55.9492 255.29 55.1205 256.12Z" stroke="white" stroke-width="5"/>
</g>
</g>
<defs>
<filter id="filter0_d_5_2" x="204.9" y="195" width="175.1" height="237.1" filterUnits="userSpaceOnUse" color-interpolation-filters="sRGB">
<feFlood flood-opacity="0" result="BackgroundImageFix"/>
<feColorMatrix in="SourceAlpha" type="matrix" values="0 0 0 0 0 0 0 0 0 0 0 0 0 0 0 0 0 0 127 0" result="hardAlpha"/>
<feOffset dx="-10" dy="10"/>
<feGaussianBlur stdDeviation="2.55"/>
<feComposite in2="hardAlpha" operator="out"/>
<feColorMatrix type="matrix" values="0 0 0 0 0 0 0 0 0 0 0 0 0 0 0 0 0 0 0.25 0"/>
<feBlend mode="normal" in2="BackgroundImageFix" result="effect1_dropShadow_5_2"/>
<feBlend mode="normal" in="SourceGraphic" in2="effect1_dropShadow_5_2" result="shape"/>
</filter>
<filter id="filter1_d_5_2" x="4.9" y="-17" width="175.1" height="237.1" filterUnits="userSpaceOnUse" color-interpolation-filters="sRGB">
<feFlood flood-opacity="0" result="BackgroundImageFix"/>
<feColorMatrix in="SourceAlpha" type="matrix" values="0 0 0 0 0 0 0 0 0 0 0 0 0 0 0 0 0 0 127 0" result="hardAlpha"/>
<feOffset dx="-10" dy="10"/>
<feGaussianBlur stdDeviation="2.55"/>
<feComposite in2="hardAlpha" operator="out"/>
<feColorMatrix type="matrix" values="0 0 0 0 0 0 0 0 0 0 0 0 0 0 0 0 0 0 0.25 0"/>
<feBlend mode="normal" in2="BackgroundImageFix" result="effect1_dropShadow_5_2"/>
<feBlend mode="normal" in="SourceGraphic" in2="effect1_dropShadow_5_2" result="shape"/>
</filter>
<filter id="filter2_d_5_2" x="231.899" y="43.9833" width="125.101" height="119.095" filterUnits="userSpaceOnUse" color-interpolation-filters="sRGB">
<feFlood flood-opacity="0" result="BackgroundImageFix"/>
<feColorMatrix in="SourceAlpha" type="matrix" values="0 0 0 0 0 0 0 0 0 0 0 0 0 0 0 0 0 0 127 0" result="hardAlpha"/>
<feOffset dx="-10" dy="10"/>
<feGaussianBlur stdDeviation="2.55"/>
<feComposite in2="hardAlpha" operator="out"/>
<feColorMatrix type="matrix" values="0 0 0 0 0 0 0 0 0 0 0 0 0 0 0 0 0 0 0.25 0"/>
<feBlend mode="normal" in2="BackgroundImageFix" result="effect1_dropShadow_5_2"/>
<feBlend mode="normal" in="SourceGraphic" in2="effect1_dropShadow_5_2" result="shape"/>
</filter>
<filter id="filter3_d_5_2" x="34.9" y="251" width="115.1" height="115.1" filterUnits="userSpaceOnUse" color-interpolation-filters="sRGB">
<feFlood flood-opacity="0" result="BackgroundImageFix"/>
<feColorMatrix in="SourceAlpha" type="matrix" values="0 0 0 0 0 0 0 0 0 0 0 0 0 0 0 0 0 0 127 0" result="hardAlpha"/>
<feOffset dx="-10" dy="10"/>
<feGaussianBlur stdDeviation="2.55"/>
<feComposite in2="hardAlpha" operator="out"/>
<feColorMatrix type="matrix" values="0 0 0 0 0 0 0 0 0 0 0 0 0 0 0 0 0 0 0.25 0"/>
<feBlend mode="normal" in2="BackgroundImageFix" result="effect1_dropShadow_5_2"/>
<feBlend mode="normal" in="SourceGraphic" in2="effect1_dropShadow_5_2" result="shape"/>
</filter>
<clipPath id="clip0_5_2">
<rect width="400" height="400" rx="5" fill="white"/>
</clipPath>
</defs>
</svg>
