<svg width="22" height="25" viewBox="0 0 22 25" fill="none" xmlns="http://www.w3.org/2000/svg">
<rect x="5.5" y="6" width="8" height="6" fill="white"/>
<rect x="9" y="6" width="7" height="1" fill="white"/>
<rect x="5.5" y="12" width="10.5" height="7" fill="white"/>
<ellipse cx="6" cy="12.5" rx="4" ry="5.5" fill="white"/>
<rect x="13" y="7" width="5.7" height="11" rx="1" fill="white"/>
<path d="M15.67 18.984C14.878 18.984 14.14 18.786 13.456 18.39C12.784 17.994 12.25 17.46 11.854 16.788C11.458 16.116 11.26 15.384 11.26 14.592V10.398C11.26 9.606 11.458 8.874 11.854 8.202C12.25 7.53 12.784 6.996 13.456 6.6C14.14 6.204 14.878 6.006 15.67 6.006C16.462 6.006 17.194 6.204 17.866 6.6C18.55 6.996 19.09 7.53 19.486 8.202C19.882 8.874 20.08 9.606 20.08 10.398V14.592C20.08 15.384 19.882 16.116 19.486 16.788C19.09 17.46 18.55 17.994 17.866 18.39C17.194 18.786 16.462 18.984 15.67 18.984ZM15.67 17.598C16.198 17.598 16.684 17.46 17.128 17.184C17.584 16.908 17.944 16.542 18.208 16.086C18.472 15.618 18.604 15.12 18.604 14.592V10.398C18.604 9.87 18.472 9.378 18.208 8.922C17.944 8.454 17.584 8.082 17.128 7.806C16.684 7.53 16.198 7.392 15.67 7.392C15.142 7.392 14.65 7.53 14.194 7.806C13.75 8.082 13.396 8.454 13.132 8.922C12.868 9.378 12.736 9.87 12.736 10.398V14.592C12.736 15.12 12.868 15.618 13.132 16.086C13.396 16.542 13.75 16.908 14.194 17.184C14.65 17.46 15.142 17.598 15.67 17.598Z" fill="white"/>
<path d="M5.67 18.984C4.878 18.984 4.14 18.786 3.456 18.39C2.784 17.994 2.25 17.46 1.854 16.788C1.458 16.116 1.26 15.384 1.26 14.592V10.398C1.26 9.606 1.458 8.874 1.854 8.202C2.25 7.53 2.784 6.996 3.456 6.6C4.14 6.204 4.878 6.006 5.67 6.006C6.462 6.006 7.194 6.204 7.866 6.6C8.55 6.996 9.09 7.53 9.486 8.202C9.882 8.874 10.08 9.606 10.08 10.398V14.592C10.08 15.384 9.882 16.116 9.486 16.788C9.09 17.46 8.55 17.994 7.866 18.39C7.194 18.786 6.462 18.984 5.67 18.984ZM5.67 17.598C6.198 17.598 6.684 17.46 7.128 17.184C7.584 16.908 7.944 16.542 8.208 16.086C8.472 15.618 8.604 15.12 8.604 14.592V10.398C8.604 9.87 8.472 9.378 8.208 8.922C7.944 8.454 7.584 8.082 7.128 7.806C6.684 7.53 6.198 7.392 5.67 7.392C5.142 7.392 4.65 7.53 4.194 7.806C3.75 8.082 3.396 8.454 3.132 8.922C2.868 9.378 2.736 9.87 2.736 10.398V14.592C2.736 15.12 2.868 15.618 3.132 16.086C3.396 16.542 3.75 16.908 4.194 17.184C4.65 17.46 5.142 17.598 5.67 17.598Z" fill="white"/>
<path d="M6.04 18.208C5.336 18.208 4.68 18.032 4.072 17.68C3.47467 17.328 3 16.8533 2.648 16.256C2.296 15.6587 2.12 15.008 2.12 14.304V10.576C2.12 9.872 2.296 9.22133 2.648 8.624C3 8.02667 3.47467 7.552 4.072 7.2C4.68 6.848 5.336 6.672 6.04 6.672C6.744 6.672 7.39467 6.848 7.992 7.2C8.6 7.552 9.08 8.02667 9.432 8.624C9.784 9.22133 9.96 9.872 9.96 10.576V14.304C9.96 15.008 9.784 15.6587 9.432 16.256C9.08 16.8533 8.6 17.328 7.992 17.68C7.39467 18.032 6.744 18.208 6.04 18.208ZM6.04 16.976C6.50933 16.976 6.94133 16.8533 7.336 16.608C7.74133 16.3627 8.06133 16.0373 8.296 15.632C8.53067 15.216 8.648 14.7733 8.648 14.304V10.576C8.648 10.1067 8.53067 9.66933 8.296 9.264C8.06133 8.848 7.74133 8.51733 7.336 8.272C6.94133 8.02667 6.50933 7.904 6.04 7.904C5.57067 7.904 5.13333 8.02667 4.728 8.272C4.33333 8.51733 4.01867 8.848 3.784 9.264C3.54933 9.66933 3.432 10.1067 3.432 10.576V14.304C3.432 14.7733 3.54933 15.216 3.784 15.632C4.01867 16.0373 4.33333 16.3627 4.728 16.608C5.13333 16.8533 5.57067 16.976 6.04 16.976ZM15.0141 18.208C14.4808 18.208 13.9475 18.1333 13.4141 17.984C12.8915 17.8347 12.4381 17.6267 12.0541 17.36C12.0115 17.3387 11.9795 17.3013 11.9581 17.248C11.9475 17.1947 11.9528 17.1413 11.9741 17.088L12.3421 16.368C12.3955 16.272 12.4701 16.224 12.5661 16.224C12.6195 16.224 12.6621 16.2347 12.6941 16.256C13.5155 16.7467 14.2941 16.992 15.0301 16.992C15.7128 16.992 16.2728 16.8213 16.7101 16.48C17.1475 16.128 17.3661 15.6587 17.3661 15.072C17.3661 14.688 17.2701 14.3733 17.0781 14.128C16.8861 13.8827 16.6461 13.6853 16.3581 13.536C16.0701 13.3867 15.6701 13.2107 15.1581 13.008C14.4861 12.752 13.9475 12.5173 13.5421 12.304C13.1368 12.08 12.7848 11.76 12.4861 11.344C12.1875 10.928 12.0381 10.3893 12.0381 9.728C12.0381 9.06667 12.1928 8.50667 12.5021 8.048C12.8221 7.57867 13.2435 7.232 13.7661 7.008C14.2888 6.784 14.8648 6.672 15.4941 6.672C16.0061 6.672 16.5021 6.74667 16.9821 6.896C17.4728 7.03467 17.9048 7.22667 18.2781 7.472C18.3208 7.49333 18.3475 7.536 18.3581 7.6C18.3795 7.65333 18.3741 7.70667 18.3421 7.76L17.9901 8.416C17.9581 8.48 17.9101 8.52267 17.8461 8.544C17.7821 8.56533 17.7181 8.55467 17.6541 8.512C16.9395 8.08533 16.2248 7.872 15.5101 7.872C14.8595 7.872 14.3368 8.032 13.9421 8.352C13.5581 8.672 13.3661 9.10933 13.3661 9.664C13.3661 10.048 13.4621 10.368 13.6541 10.624C13.8461 10.8693 14.0808 11.0667 14.3581 11.216C14.6461 11.3653 15.0515 11.5413 15.5741 11.744C15.6701 11.7867 16.0275 11.9253 16.6461 12.16C17.2755 12.3947 17.7715 12.752 18.1341 13.232C18.5075 13.712 18.6941 14.288 18.6941 14.96C18.6941 15.6213 18.5341 16.1973 18.2141 16.688C17.9048 17.1787 17.4728 17.5573 16.9181 17.824C16.3635 18.08 15.7288 18.208 15.0141 18.208Z" fill="black"/>
</svg>
